<svg width="18" height="18" viewBox="0 0 18 18" fill="none" xmlns="http://www.w3.org/2000/svg">
<g clip-path="url(#clip0_347_5725)">
<path d="M17.7929 13.2543C17.4714 12.7119 17.0035 12.2812 16.4575 12.0002C16.7405 11.6539 16.8947 11.2242 16.8947 10.7709C16.8947 10.2508 16.6921 9.76187 16.3244 9.39428C16.1348 9.2044 15.9078 9.05606 15.6577 8.95869C15.3976 7.65791 14.7608 6.46228 13.8016 5.50304C13.146 4.84745 12.3797 4.34275 11.5451 4.00574C11.258 3.6605 10.9043 3.37925 10.5097 3.17616C10.7928 2.8298 10.9468 2.40026 10.9468 1.94678C10.9468 1.42682 10.7444 0.937969 10.3766 0.570199C10.009 0.20257 9.52008 0 9.00002 0C8.48005 0 7.99121 0.20257 7.62344 0.570199C7.25581 0.937934 7.05324 1.42685 7.05324 1.94678C7.05324 2.40022 7.20733 2.8298 7.49051 3.17616C7.09582 3.37925 6.74218 3.6605 6.45502 4.00563C5.62049 4.34278 4.85419 4.84745 4.19845 5.50304C3.23922 6.46228 2.60254 7.65788 2.34231 8.95866C2.09231 9.05603 1.86531 9.20437 1.67575 9.39424C1.30795 9.76191 1.10538 10.2508 1.10538 10.7709C1.10538 11.2242 1.25947 11.6539 1.54265 12.0002C0.996639 12.2812 0.528746 12.7119 0.207137 13.2543C-0.0650774 13.7134 -0.0691907 14.2654 0.195992 14.7308C0.46339 15.2001 0.945135 15.4806 1.48457 15.4806H4.60454C5.83076 16.5251 7.37144 17.0949 9.00002 17.0949C10.6286 17.0949 12.1693 16.5251 13.3953 15.4806H16.5154C17.0548 15.4806 17.5365 15.2001 17.804 14.7308C18.0692 14.2654 18.0651 13.7134 17.7929 13.2543ZM16.8613 14.1935C16.8267 14.2542 16.7238 14.3954 16.5155 14.3954H13.3802C13.1719 14.3954 13.0691 14.2542 13.0345 14.1935C13.001 14.1349 12.9342 13.9797 13.0362 13.8078C13.4348 13.1353 14.1673 12.7176 14.9479 12.7176C15.7283 12.7176 16.4608 13.1353 16.8595 13.8078C16.9614 13.9797 16.8947 14.1349 16.8613 14.1935ZM15.5571 11.38C15.2211 11.7161 14.6746 11.7161 14.3386 11.38C14.0026 11.0442 14.0026 10.4976 14.3386 10.1615C14.5065 9.99359 14.7272 9.90967 14.9479 9.90967C15.1686 9.90967 15.3891 9.99359 15.5571 10.1615C15.8931 10.4976 15.8931 11.0442 15.5571 11.38ZM8.39083 1.33759C8.55877 1.16965 8.77948 1.08559 9.00002 1.08559C9.22069 1.08559 9.44123 1.16961 9.60934 1.33759C9.94526 1.67351 9.94526 2.22005 9.60934 2.55611C9.27328 2.89202 8.72675 2.89202 8.39083 2.55611C8.05491 2.22005 8.05491 1.67351 8.39083 1.33759ZM10.9116 4.98364C11.0137 5.15573 10.9469 5.31077 10.9134 5.36941C10.8788 5.43013 10.7759 5.57132 10.5676 5.57132H7.4324C7.22406 5.57132 7.12123 5.43013 7.0866 5.36941C7.05324 5.31077 6.98637 5.15573 7.0884 4.98368C7.48693 4.31132 8.21944 3.89355 9.00002 3.89355C9.78059 3.89355 10.5131 4.31128 10.9116 4.98364ZM1.13892 14.1935C1.10538 14.1349 1.03865 13.9797 1.14053 13.8078C1.5392 13.1353 2.27172 12.7176 3.05233 12.7176C3.83276 12.7176 4.56524 13.1353 4.96391 13.8078C5.06583 13.9797 4.99907 14.1349 4.96556 14.1935C4.93097 14.2542 4.8281 14.3954 4.61977 14.3954H1.48468C1.27638 14.3954 1.17351 14.2542 1.13892 14.1935ZM2.44296 10.1615C2.61108 9.99359 2.83162 9.90967 3.05229 9.90967C3.27286 9.90967 3.49354 9.99359 3.66148 10.1615C3.9974 10.4976 3.9974 11.0442 3.66148 11.38C3.3256 11.716 2.77902 11.716 2.44296 11.38C2.10708 11.0442 2.10708 10.4976 2.44296 10.1615ZM5.72993 14.9812C5.79775 14.904 5.85756 14.8201 5.90845 14.7308C6.17363 14.2654 6.16952 13.7134 5.89734 13.2545C5.57587 12.712 5.10784 12.2812 4.56183 12.0002C4.84498 11.6539 4.99907 11.2242 4.99907 10.7709C4.99907 10.2509 4.79653 9.76205 4.42876 9.39428C4.16754 9.13253 3.83671 8.95122 3.47554 8.87186C3.72687 7.89616 4.2347 7.00144 4.96584 6.27029C5.27156 5.96434 5.6108 5.69384 5.97715 5.46391C6.0088 5.61943 6.06508 5.7689 6.14386 5.90667C6.41122 6.37618 6.89296 6.65648 7.4324 6.65648H10.5676C11.1072 6.65648 11.5888 6.37618 11.8563 5.90667C11.935 5.76887 11.9913 5.61941 12.023 5.46391C12.3894 5.69383 12.7286 5.96433 13.0343 6.27029C13.7655 7.00144 14.2733 7.89616 14.5245 8.87186C14.175 8.9492 13.8426 9.12291 13.5713 9.39428C13.2035 9.76201 13.0011 10.2509 13.0011 10.7709C13.0011 11.2242 13.155 11.6539 13.4382 12.0002C12.8922 12.2812 12.4243 12.7119 12.1028 13.2545C11.8307 13.7134 11.8265 14.2654 12.0916 14.7308C12.1425 14.8201 12.2023 14.9041 12.2701 14.9814C11.3185 15.6496 10.1871 16.0098 9.00002 16.0098C7.81307 16.0098 6.68164 15.6496 5.72993 14.9812Z" fill="#231F20"/>
</g>
<defs>
<clipPath id="clip0_347_5725">
<rect width="18" height="18" fill="white"/>
</clipPath>
</defs>
</svg>
