<svg width="18" height="18" viewBox="0 0 18 18" fill="none" xmlns="http://www.w3.org/2000/svg">
<g clip-path="url(#clip0_347_5629)">
<path d="M16.0199 13.148C16.5857 12.6641 16.9453 11.9457 16.9453 11.1445C16.9453 10.2838 16.5306 9.51813 15.8906 9.0366V9.03516C15.8906 5.24503 12.7894 2.14453 9 2.14453C8.0544 2.14453 7.1486 2.31574 6.32791 2.64544C6.32791 2.64252 6.32812 2.63964 6.32812 2.63672C6.32812 1.18283 5.14529 0 3.69141 0C2.23752 0 1.05469 1.18283 1.05469 2.63672C1.05469 3.43789 1.41434 4.15624 1.98011 4.6402C0.804059 5.25818 0 6.49195 0 7.91016V8.96484C0 9.25608 0.236109 9.49219 0.527344 9.49219H2.12955C2.39868 13.0258 5.3768 15.8555 9 15.8555C9.58971 15.8555 10.1606 15.7926 10.6931 15.6715C10.6425 15.9171 10.6171 16.1672 10.6172 16.418V17.4727C10.6172 17.7639 10.8533 18 11.1445 18H17.4727C17.7639 18 18 17.7639 18 17.4727V16.418C18 14.9998 17.1959 13.766 16.0199 13.148ZM15.8906 11.1445C15.8906 12.0169 15.1809 12.7266 14.3086 12.7266C13.4363 12.7266 12.7266 12.0169 12.7266 11.1445C12.7266 10.2722 13.4363 9.5625 14.3086 9.5625C15.1809 9.5625 15.8906 10.2722 15.8906 11.1445ZM3.69141 1.05469C4.56374 1.05469 5.27344 1.76439 5.27344 2.63672C5.27344 3.50905 4.56374 4.21875 3.69141 4.21875C2.81907 4.21875 2.10938 3.50905 2.10938 2.63672C2.10938 1.76439 2.81907 1.05469 3.69141 1.05469ZM1.05469 8.4375V7.91016C1.05469 6.45627 2.23752 5.27344 3.69141 5.27344C5.14529 5.27344 6.32812 6.45627 6.32812 7.91016V8.4375H1.05469ZM9 14.8008C5.95979 14.8008 3.45561 12.4639 3.18814 9.49219H6.85547C7.1467 9.49219 7.38281 9.25608 7.38281 8.96484V7.91016C7.38281 6.49195 6.57875 5.25818 5.40271 4.6402C5.61179 4.46153 5.79186 4.25148 5.93648 4.01755C6.81441 3.4823 7.87039 3.19922 9 3.19922C12.057 3.19922 14.5724 5.56207 14.8162 8.55735C14.649 8.52447 14.479 8.50788 14.3086 8.50781C12.8547 8.50781 11.6719 9.69064 11.6719 11.1445C11.6719 11.9457 12.0315 12.6641 12.5973 13.148C12.0343 13.4442 11.5567 13.88 11.2102 14.4135C10.5693 14.6671 9.80919 14.8008 9 14.8008ZM16.9453 16.9453H11.6719V16.418C11.6719 14.9641 12.8547 13.7812 14.3086 13.7812C15.7625 13.7812 16.9453 14.9641 16.9453 16.418V16.9453Z" fill="#231F20"/>
</g>
<defs>
<clipPath id="clip0_347_5629">
<rect width="18" height="18" fill="white"/>
</clipPath>
</defs>
</svg>
