<svg width="18" height="18" viewBox="0 0 18 18" fill="none" xmlns="http://www.w3.org/2000/svg">
<g clip-path="url(#clip0_347_5698)">
<path d="M16.0454 13.1059C16.0454 13.1059 16.0454 13.1057 16.0452 13.1057L16.0451 13.1056L14.554 11.6115C14.5538 11.6115 14.5538 11.6114 14.5538 11.6114H14.5537L11.9347 8.98713C13.1286 7.72604 13.8197 6.79807 14.5821 5.63223C16.7212 4.88024 16.9872 3.98461 17.553 2.0764C17.6708 1.67874 17.8045 1.22811 17.9735 0.714457C18.004 0.621577 18.0082 0.522019 17.9856 0.426878C17.963 0.331737 17.9145 0.244753 17.8455 0.175619C17.7765 0.106411 17.6896 0.0577728 17.5947 0.0351323C17.4997 0.0124918 17.4003 0.0167391 17.3076 0.0474003C16.7173 0.242371 16.2067 0.381756 15.7561 0.504762C14.8832 0.743236 14.1938 0.931443 13.6277 1.35101C13.0616 1.77054 12.6654 2.37803 12.3188 3.36447C11.1551 4.12826 10.2291 4.82068 8.97029 6.01706L5.23262 2.27193C5.19055 2.23055 5.14221 2.19609 5.0894 2.16985L0.756879 0.070367C0.658313 0.0226245 0.547359 0.00680507 0.439414 0.0251037C0.331468 0.0434023 0.231883 0.0949116 0.154477 0.172484C0.0770601 0.250023 0.0256528 0.349784 0.00738959 0.457924C-0.0108736 0.566064 0.00491322 0.677218 0.0525591 0.77596L2.14794 5.11706C2.17411 5.17 2.2085 5.21843 2.24982 5.26057L6.03999 9.05811C4.89178 10.329 3.70937 11.7157 2.70549 12.9782C1.81793 14.0943 1.1115 15.0633 0.662309 15.7803C0.402188 16.1957 0.225176 16.5285 0.1215 16.7974C0.0553012 16.9693 -0.146285 17.4923 0.20911 17.8483C0.489657 18.1294 0.891247 18.0777 1.25982 17.9302C1.52582 17.8238 1.85488 17.643 2.26547 17.3777C2.97904 16.9166 3.91015 16.2182 5.03279 15.3019C6.26024 14.3002 7.63341 13.1034 8.90807 11.9317L14.5538 17.5886C14.8623 17.8976 15.2673 18.0521 15.6724 18.0521C16.0775 18.0521 16.4826 17.8976 16.7909 17.5886L17.5366 16.8415C18.1534 16.2235 18.1534 15.218 17.5366 14.6L16.0454 13.1059ZM12.6896 14.2264L14.181 12.7321L14.9269 13.4792L13.4353 14.9736L12.6896 14.2264ZM10.4525 8.99632L8.96115 7.50201C10.6098 5.85013 11.637 5.08289 12.702 4.37631L13.5721 5.24813C12.867 6.3152 12.1012 7.34444 10.4525 8.99632ZM16.0335 1.52425C16.2332 1.46961 16.4444 1.41195 16.6695 1.3477C16.6268 1.49021 16.5843 1.63281 16.5421 1.77547C16.0202 3.53521 15.8719 4.03526 14.3945 4.5778L13.3717 3.55296C13.9096 2.10419 14.4547 1.95533 16.0335 1.52425ZM3.96246 2.79756L2.77443 3.98792L1.66166 1.68262L3.96246 2.79756ZM3.36839 4.88697L4.85975 3.39269L8.21542 6.75488C7.79833 7.17276 7.30382 7.68588 6.75355 8.27875L3.36839 4.88697ZM4.76831 14.1524C3.04017 15.5852 1.95223 16.3493 1.33355 16.7134C1.44781 16.511 1.60945 16.2477 1.83839 15.9083C2.32302 15.1901 3.01943 14.2656 3.85218 13.2352C5.21434 11.5498 6.82576 9.71735 8.22365 8.25744L9.69993 9.73661C8.17285 11.2136 6.3476 12.8429 4.76831 14.1524ZM11.1982 9.74348L13.4353 11.985L11.9439 13.4793L9.68168 11.2125C10.27 10.6588 10.7799 10.1626 11.1982 9.74348ZM16.7909 16.0943L16.0453 16.8415C15.8397 17.0475 15.5053 17.0475 15.2996 16.8415L14.181 15.7208L15.6724 14.2265L16.7909 15.3472C16.9965 15.5532 16.9965 15.8884 16.7909 16.0943Z" fill="#231F20"/>
</g>
<defs>
<clipPath id="clip0_347_5698">
<rect width="18" height="18" fill="white"/>
</clipPath>
</defs>
</svg>
