<svg width="18" height="18" viewBox="0 0 18 18" fill="none" xmlns="http://www.w3.org/2000/svg">
<path d="M13.4999 14.0394C13.6855 14.0547 13.8733 14.0625 14.0629 14.0625C14.8491 14.0625 15.604 13.9281 16.3057 13.6809C16.3104 13.6213 16.3129 13.5609 16.3129 13.5C16.3129 12.2574 15.3055 11.25 14.0629 11.25C13.5922 11.25 13.1552 11.3945 12.794 11.6417M13.4999 14.0394C13.4999 14.0471 13.4999 14.0548 13.4999 14.0625C13.4999 14.2312 13.4906 14.3978 13.4726 14.5617C12.155 15.3177 10.6279 15.75 8.99994 15.75C7.37194 15.75 5.84489 15.3177 4.52732 14.5617C4.50923 14.3978 4.49994 14.2312 4.49994 14.0625C4.49994 14.0548 4.49996 14.0471 4.5 14.0394M13.4999 14.0394C13.4954 13.1569 13.237 12.3346 12.794 11.6417M12.794 11.6417C11.9945 10.3914 10.594 9.5625 8.99994 9.5625C7.40603 9.5625 6.00568 10.3912 5.20621 11.6412M5.20621 11.6412C4.84511 11.3944 4.40841 11.25 3.93799 11.25C2.69535 11.25 1.68799 12.2574 1.68799 13.5C1.68799 13.5609 1.69041 13.6213 1.69516 13.6809C2.39688 13.9281 3.15174 14.0625 3.93799 14.0625C4.12724 14.0625 4.31468 14.0547 4.5 14.0394M5.20621 11.6412C4.76297 12.3342 4.50443 13.1568 4.5 14.0394M11.2499 5.0625C11.2499 6.30514 10.2426 7.3125 8.99994 7.3125C7.7573 7.3125 6.74994 6.30514 6.74994 5.0625C6.74994 3.81986 7.7573 2.8125 8.99994 2.8125C10.2426 2.8125 11.2499 3.81986 11.2499 5.0625ZM15.7499 7.3125C15.7499 8.24448 14.9944 9 14.0624 9C13.1305 9 12.3749 8.24448 12.3749 7.3125C12.3749 6.38052 13.1305 5.625 14.0624 5.625C14.9944 5.625 15.7499 6.38052 15.7499 7.3125ZM5.62494 7.3125C5.62494 8.24448 4.86942 9 3.93744 9C3.00546 9 2.24994 8.24448 2.24994 7.3125C2.24994 6.38052 3.00546 5.625 3.93744 5.625C4.86942 5.625 5.62494 6.38052 5.62494 7.3125Z" stroke="#231F20" stroke-linecap="round" stroke-linejoin="round"/>
</svg>
