<svg width="18" height="18" viewBox="0 0 18 18" fill="none" xmlns="http://www.w3.org/2000/svg">
<g clip-path="url(#clip0_347_5686)">
<path d="M17.2437 13.6817H12.3367V9.55978C12.3367 9.23459 12.073 8.97095 11.7478 8.97095H6.25194C5.92674 8.97095 5.66311 9.23459 5.66311 9.55978V11.3263H0.756068C0.430873 11.3263 0.167236 11.59 0.167236 11.9151V17.411C0.167236 17.7362 0.430873 17.9999 0.756068 17.9999H17.2437C17.5689 17.9999 17.8325 17.7362 17.8325 17.4111V14.2705C17.8325 13.9454 17.5689 13.6817 17.2437 13.6817ZM5.66311 16.8222H1.34494V12.504H5.66311V16.8222ZM11.159 16.8222H6.84081V10.1486H11.159V16.8222ZM16.6549 16.8222H12.3367V14.8594H16.6549V16.8222ZM12.3858 2.5452L10.2767 2.23867L9.33352 0.327543C9.11788 -0.109309 8.49308 -0.109379 8.27747 0.327543L7.33426 2.23874L5.22513 2.54527C4.74317 2.61523 4.54981 3.20948 4.89881 3.54965L6.42494 5.03725L6.06466 7.13784C5.9824 7.61779 6.48752 7.98542 6.91906 7.75859L8.80551 6.7668L10.6919 7.75859C11.1217 7.9844 11.6288 7.61905 11.5463 7.13784L11.186 5.03728L12.7122 3.54965C13.0609 3.20962 12.8681 2.6152 12.3858 2.5452ZM10.1423 4.40996C10.074 4.47659 10.0228 4.55885 9.99331 4.64965C9.96381 4.74044 9.95683 4.83705 9.97298 4.93115L10.1839 6.16084L9.07956 5.58024C8.99505 5.53582 8.901 5.5126 8.80553 5.5126C8.71006 5.5126 8.61602 5.53582 8.53151 5.58024L7.42711 6.16088L7.63805 4.93115C7.65419 4.83705 7.6472 4.74045 7.6177 4.64965C7.5882 4.55885 7.53706 4.47659 7.4687 4.40996L6.57527 3.53907L7.80999 3.35963C7.90447 3.3459 7.99419 3.3094 8.07142 3.25329C8.14866 3.19718 8.21109 3.12313 8.25335 3.03753L8.80551 1.91868L9.35764 3.03753C9.3999 3.12313 9.46233 3.19718 9.53957 3.25329C9.6168 3.30941 9.70652 3.3459 9.801 3.35963L11.0357 3.53907L10.1423 4.40996Z" fill="#231F20"/>
</g>
<defs>
<clipPath id="clip0_347_5686">
<rect width="18" height="18" fill="white"/>
</clipPath>
</defs>
</svg>
